<svg width="14" height="14" viewBox="0 0 14 14" fill="none" xmlns="http://www.w3.org/2000/svg">
<path d="M12.8333 6.35851V2.39184C12.8333 1.51684 12.46 1.16684 11.5325 1.16684H9.17583C8.24833 1.16684 7.875 1.51684 7.875 2.39184V6.35851C7.875 7.23351 8.24833 7.58351 9.17583 7.58351H11.5325C12.46 7.58351 12.8333 7.23351 12.8333 6.35851Z" stroke="#EB4C6B" stroke-width="0.875" stroke-linecap="round" stroke-linejoin="round"/>
<path d="M12.8333 11.6082V10.5582C12.8333 9.68316 12.46 9.33316 11.5325 9.33316H9.17583C8.24833 9.33316 7.875 9.68316 7.875 10.5582V11.6082C7.875 12.4832 8.24833 12.8332 9.17583 12.8332H11.5325C12.46 12.8332 12.8333 12.4832 12.8333 11.6082Z" stroke="#EB4C6B" stroke-width="0.875" stroke-linecap="round" stroke-linejoin="round"/>
<path d="M6.12435 7.64199V11.6087C6.12435 12.4837 5.75102 12.8337 4.82352 12.8337H2.46685C1.53935 12.8337 1.16602 12.4837 1.16602 11.6087V7.64199C1.16602 6.76699 1.53935 6.41699 2.46685 6.41699H4.82352C5.75102 6.41699 6.12435 6.76699 6.12435 7.64199Z" stroke="#EB4C6B" stroke-width="0.875" stroke-linecap="round" stroke-linejoin="round"/>
<path d="M6.12435 2.39199V3.44199C6.12435 4.31699 5.75102 4.66699 4.82352 4.66699H2.46685C1.53935 4.66699 1.16602 4.31699 1.16602 3.44199V2.39199C1.16602 1.51699 1.53935 1.16699 2.46685 1.16699H4.82352C5.75102 1.16699 6.12435 1.51699 6.12435 2.39199Z" stroke="#EB4C6B" stroke-width="0.875" stroke-linecap="round" stroke-linejoin="round"/>
</svg>